# xmcd CD database file
#
# Track frame offsets:
#	150
#	16088
#	31303
#	45251
#	60858
#	74363
#	89122
#	103295
#	118364
#	132106
#	145452
#	159278
#
# Disc length: 2326 seconds
#
# Revision: 0
# Processed by: cddbd v1.5.2PL0 Copyright (c) Steve Scherf et al.
# Submitted via: CDex 1.51
#
DISCID=a109140c
DTITLE=Big Band Love Songs - In The Mood
DYEAR=2006
DGENRE=Jazz
TTITLE0=Glenn Miller - In The Mood
TTITLE1=Harry James and Kitty Kallen - It's Been A Long, Long Time
TTITLE2=Benny Goodman and Peggy Lee - My Old Flame
TTITLE3=Duke Ellington - Cocktails For Two
TTITLE4=Artie Shaw - Dancing In The Dark
TTITLE5=Fred Astaire - Cheek To Cheek
TTITLE6=Tommy Dorsey and Jo Stafford - A Boy In Khaki, A Girl In Lace
TTITLE7=Louis Armstrong - I'm Confessin' (That I Love You)
TTITLE8=Count Basie and Jimmy Rushing - Hey, Pretty Baby
TTITLE9=Sammy Kaye - Moon Love
TTITLE10=Billie Holiday, Teddy Wilson, Benny Goodman - I Wished Upon The Moon
TTITLE11=Claude Thornhill - A Sunday Kind Of Love
EXTD=YEAR: 2006
EXTT0=
EXTT1=
EXTT2=
EXTT3=
EXTT4=
EXTT5=
EXTT6=
EXTT7=
EXTT8=
EXTT9=
EXTT10=
EXTT11=
PLAYORDER=
